#!OML:ASF F:\VICON\USERDATA\INSTALL\Justin_Nancy\Justin_Nancy.ASF
:FULLY-SPECIFIED
:DEGREES
407
root 2.13498 17.317 14.0978 104.885 86.5338 99.2263
lowerback 7.97721 -1.19097 -3.81248
upperback 0.0529367 -1.85661 1.51787
thorax -4.24962 -0.820427 3.9377
lowerneck -17.693 -3.32039 -8.78574
upperneck 20.7268 -2.82582 3.50443
head 9.67944 -1.55822 2.3051
rclavicle 6.4605e-015 -6.36111e-015
rhumerus -31.097 -23.3555 -75.378
rradius 25.9754
rwrist 12.8462
rhand -14.8293 11.1579
rfingers 7.12502
rthumb 11.3293 -18.5161
lclavicle 6.4605e-015 -6.36111e-015
lhumerus -25.7043 6.73271 86.6969
lradius 38.3693
lwrist -4.04677
lhand -17.0757 22.8877
lfingers 7.12502
lthumb 9.16234 52.6686
rfemur -32.3013 5.12673 8.77435
rtibia 16.5949
rfoot -6.50412 -6.25397
rtoes 7.00574
lfemur -3.38499 -2.29169 -29.0279
ltibia 20.8745
lfoot -17.5117 2.63479
ltoes 1.28211
408
root 2.28086 17.2734 14.0674 98.7436 83.9298 93.4227
lowerback 8.17247 -1.15499 -5.66541
upperback 0.112401 -2.03008 0.587313
thorax -4.25292 -0.877072 4.03403
lowerneck -17.669 -3.32467 -8.86894
upperneck 20.7879 -2.84094 3.63368
head 9.70073 -1.55767 2.36317
rclavicle 4.47266e-015 -1.59028e-015
rhumerus -31.179 -23.3363 -75.2437
rradius 25.4397
rwrist 12.928
rhand -14.9499 11.1924
rfingers 7.12502
rthumb 11.213 -18.4879
lclavicle 4.47266e-015 -1.59028e-015
lhumerus -25.5753 5.79482 86.7678
lradius 38.7405
lwrist -3.13958
lhand -17.2833 22.886
lfingers 7.12502
lthumb 8.96199 52.6756
rfemur -31.6261 3.48582 6.15
rtibia 14.5646
rfoot -6.28229 -4.50274
rtoes 5.93428
lfemur -2.10016 -3.41044 -32.2371
ltibia 20.4204
lfoot -17.3613 3.50316
ltoes 3.68641
409
root 2.44668 17.2763 14.1666 96.0688 84.0835 91.0981
lowerback 8.12497 -1.0427 -6.55591
upperback 0.263076 -1.94474 0.806401
thorax -4.04205 -0.825593 4.75276
lowerneck -17.6573 -3.37812 -9.11481
upperneck 20.8268 -2.9028 3.8655
head 9.72443 -1.58008 2.47747
rclavicle 3.1408e-014 7.95139e-016
rhumerus -31.2326 -23.1414 -75.1587
rradius 25.0781
rwrist 12.7478
rhand -15.0969 10.9259
rfingers 7.12502
rthumb 11.0713 -18.7621
lclavicle 3.1408e-014 7.95139e-016
lhumerus -25.4925 4.82579 86.7617
lradius 39.0523
lwrist -2.23739
lhand -17.6523 22.8899
lfingers 7.12502
lthumb 8.60593 52.6945
rfemur -30.4301 4.83469 6.22333
rtibia 12.2576
rfoot -6.40513 -5.72039
rtoes 3.51541
lfemur -1.05804 -1.81854 -31.6088
ltibia 20.3443
lfoot -17.8509 2.53629
ltoes 2.66648
410
root 2.58226 17.2672 14.1866 101.775 84.2656 96.9125
lowerback 8.26667 -1.34429 -6.22691
upperback 0.230933 -2.31925 0.974015
thorax -4.11228 -1.013 4.7887
lowerneck -17.6341 -3.32538 -9.33601
upperneck 20.7795 -2.7532 3.80362
head 9.6967 -1.53508 2.51228
rclavicle 2.127e-014 1.27222e-014
rhumerus -31.3222 -23.4216 -74.7487
rradius 24.7653
rwrist 13.2325
rhand -15.0471 10.7605
rfingers 7.12502
rthumb 11.1193 -18.9249
lclavicle 2.127e-014 1.27222e-014
lhumerus -25.2807 5.32024 86.7982
lradius 39.0237
lwrist -2.46664
lhand -18.1268 23.1026
lfingers 7.12502
lthumb 8.148 52.9255
rfemur -30.1743 4.26733 6.59412
rtibia 11.6154
rfoot -6.71731 -6.13189
rtoes 0.949823
lfemur -0.174506 -2.07798 -31.2905
ltibia 19.7491
lfoot -17.4706 2.73134
ltoes 0.360399
411
root 2.73381 17.2586 14.1803 98.9353 84.4846 94.3021
lowerback 8.23762 -1.29004 -5.61437
upperback 0.30066 -2.18547 0.959413
thorax -4.06233 -0.961782 4.41009
lowerneck -17.5931 -3.36852 -9.59396
upperneck 20.8179 -2.76806 3.90883
head 9.7104 -1.55092 2.59063
rclavicle -5.1684e-014 -5.56597e-015
rhumerus -31.4878 -24.0647 -74.1763
rradius 24.3808
rwrist 13.7252
rhand -14.777 10.9463
rfingers 7.12502
rthumb 11.3798 -18.7249
lclavicle -5.1684e-014 -5.56597e-015
lhumerus -25.0525 5.60169 86.884
lradius 39.0469
lwrist -2.31969
lhand -18.4444 23.2646
lfingers 7.12502
lthumb 7.84141 53.0992
rfemur -29.6201 3.32355 7.3421
rtibia 10.6476
rfoot -6.22013 -5.37116
rtoes -0.365352
lfemur 0.750335 -2.85185 -31.3764
ltibia 19.6525
lfoot -17.3551 4.00724
ltoes -0.490614
412
root 2.87249 17.2584 14.2471 107.521 84.1404 102.72
lowerback 8.14081 -1.55185 -6.03827
upperback 0.179623 -2.57506 0.901661
thorax -4.07416 -1.14472 4.62902
lowerneck -17.6733 -3.44009 -9.72879
upperneck 21.0574 -2.90801 4.26829
head 9.82729 -1.58748 2.72365
rclavicle 2.68359e-015 2.22639e-014
rhumerus -31.6011 -24.4311 -73.9885
rradius 23.9811
rwrist 13.5934
rhand -14.8466 10.9628
rfingers 7.12502
rthumb 11.3127 -18.7121
lclavicle 2.68359e-015 2.22639e-014
lhumerus -24.9044 4.95513 86.7836
lradius 39.1552
lwrist -1.58717
lhand -19.4149 23.6154
lfingers 7.12502
lthumb 6.90469 53.4828
rfemur -29.1688 2.62656 7.35187
rtibia 9.83691
rfoot -5.81019 -6.07982
rtoes 0.697997
lfemur 0.8341 -2.55903 -31.0895
ltibia 19.9218
lfoot -17.5377 2.78375
ltoes -1.53212
413
root 3.02058 17.2579 14.3156 106.026 83.9921 101.157
lowerback 7.97846 -1.47321 -6.71968
upperback 0.112015 -2.52605 0.894471
thorax -4.03222 -1.10758 4.99602
lowerneck -17.7557 -3.43003 -9.77538
upperneck 21.3504 -2.9299 4.50926
head 9.95219 -1.57545 2.81812
rclavicle -5.06901e-015 1.59028e-014
rhumerus -31.8101 -24.2409 -73.8668
rradius 23.7025
rwrist 13.4318
rhand -14.945 10.6527
rfingers 7.12502
rthumb 11.2178 -19.0273
lclavicle -5.06901e-015 1.59028e-014
lhumerus -24.7835 4.49379 86.7635
lradius 39.1193
lwrist -1.36533
lhand -20.4686 23.7088
lfingers 7.12502
lthumb 5.88742 53.607
rfemur -29.337 2.94887 7.32849
rtibia 10.2448
rfoot -5.76447 -6.92657
rtoes 3.25577
lfemur 1.27269 -1.65922 -30.8284
ltibia 19.8707
lfoot -17.5616 1.83294
ltoes -2.55236
414
root 3.16657 17.2581 14.3489 108.481 84.6036 103.747
lowerback 8.04053 -1.36924 -6.1085
upperback 0.0847875 -2.33149 1.03081
thorax -4.13921 -1.01774 4.77748
lowerneck -17.4933 -3.59248 -9.59354
upperneck 21.293 -3.23403 4.5117
head 9.90323 -1.70164 2.747
rclavicle -8.24956e-015 -1.59028e-015
rhumerus -32.2967 -24.7787 -73.3623
rradius 23.6314
rwrist 13.7135
rhand -14.8261 10.3972
rfingers 7.12502
rthumb 11.3325 -19.2767
lclavicle -8.24956e-015 -1.59028e-015
lhumerus -24.7 4.11339 86.8962
lradius 39.0905
lwrist -1.405
lhand -20.7158 23.377
lfingers 7.12502
lthumb 5.64878 53.2817
rfemur -29.4265 2.34102 8.61349
rtibia 11.1695
rfoot -5.36027 -7.21318
rtoes 3.56622
lfemur 2.01357 -1.76096 -29.9487
ltibia 19.6877
lfoot -17.2511 1.83406
ltoes -3.61649
415
root 3.32909 17.2425 14.3826 104.571 83.9121 100.162
lowerback 8.04094 -0.837724 -6.75381
upperback 0.150472 -1.7041 0.427772
thorax -4.15034 -0.698499 4.44043
lowerneck -16.9436 -3.96738 -8.46526
upperneck 21.0998 -4.02882 4.13411
head 9.75787 -2.02272 2.31854
rclavicle 1.69961e-014 -7.15625e-015
rhumerus -33.2646 -26.4766 -72.8131
rradius 23.5948
rwrist 14.3522
rhand -14.9729 10.2267
rfingers 7.12502
rthumb 11.1909 -19.4549
lclavicle 1.69961e-014 -7.15625e-015
lhumerus -24.5068 2.42907 86.8857
lradius 38.9631
lwrist -0.988867
lhand -20.3256 23.4023
lfingers 7.12502
lthumb 6.02548 53.2966
rfemur -29.6824 1.70876 8.42309
rtibia 12.9489
rfoot -5.00857 -7.28665
rtoes -0.848348
lfemur 3.33392 -2.02795 -30.7712
ltibia 19.0765
lfoot -16.8138 2.26898
ltoes -5.19912
416
root 3.51442 17.2547 14.5397 97.8074 84.6353 94.2522
lowerback 8.34614 -0.758531 -8.07237
upperback 0.495522 -1.69422 1.27978
thorax -3.89826 -0.68116 6.08988
lowerneck -17.2067 -3.69092 -9.12862
upperneck 21.2193 -3.3936 3.9693
head 9.8181 -1.80022 2.4566
rclavicle -5.76476e-015 -7.95139e-016
rhumerus -32.7661 -25.1454 -72.8054
rradius 23.1871
rwrist 14.5678
rhand -15.2317 10.5042
rfingers 7.12502
rthumb 10.9413 -19.1907
lclavicle -5.76476e-015 -7.95139e-016
lhumerus -24.4883 3.76534 87.0433
lradius 38.9188
lwrist -0.919291
lhand -20.7541 23.7981
lfingers 7.12502
lthumb 5.61176 53.7038
rfemur -28.6297 4.45242 9.19834
rtibia 13.722
rfoot -4.93497 -9.81318
rtoes -2.74979
lfemur 4.96205 -0.868951 -29.3509
ltibia 19.1363
lfoot -17.1064 1.30054
ltoes -5.56208
417
root 3.67636 17.2429 14.5499 95.8866 83.1751 92.5484
lowerback 8.28126 -0.645615 -9.22073
upperback 0.533138 -1.66051 0.763059
thorax -3.81208 -0.651626 6.18652
lowerneck -17.0342 -3.62365 -8.82717
upperneck 21.1547 -3.34299 3.74275
head 9.74912 -1.77819 2.33481
rclavicle -4.47266e-015 4.05521e-014
rhumerus -33.0874 -25.7637 -72.3466
rradius 22.9455
rwrist 14.853
rhand -15.1469 10.6623
rfingers 7.12502
rthumb 11.0231 -19.0282
lclavicle -4.47266e-015 4.05521e-014
lhumerus -24.3935 4.02076 87.0746
lradius 38.6579
lwrist -1.14224
lhand -21.3695 24.0261
lfingers 7.12502
lthumb 5.01761 53.9467
rfemur -28.9376 3.59741 7.94294
rtibia 15.6035
rfoot -5.02039 -8.91377
rtoes -2.41951
lfemur 6.08939 -1.42274 -31.0932
ltibia 18.4673
lfoot -16.2466 1.6596
ltoes -7.64902
418
root 3.82697 17.2772 14.5816 107.466 85.4304 103.604
lowerback 7.73109 -0.885508 -6.55708
upperback 0.271067 -1.68989 1.30323
thorax -3.83047 -0.704778 5.23747
lowerneck -16.8182 -3.6798 -8.68423
upperneck 21.2433 -3.49013 3.79685
head 9.74795 -1.82939 2.31318
rclavicle -1.66979e-014 -3.18055e-015
rhumerus -33.7657 -26.9933 -71.6644
rradius 22.8471
rwrist 15.5681
rhand -15.4183 10.7249
rfingers 7.12502
rthumb 10.7613 -18.9795
lclavicle -1.66979e-014 -3.18055e-015
lhumerus -24.4427 3.3752 87.0479
lradius 38.5108
lwrist -0.637545
lhand -21.8965 24.2859
lfingers 7.12502
lthumb 4.50873 54.2179
rfemur -29.5972 3.74335 10.5828
rtibia 17.1056
rfoot -4.8964 -9.20146
rtoes -2.58894
lfemur 6.13432 -1.74331 -28.1499
ltibia 18.0438
lfoot -15.4972 0.871086
ltoes -10.2003
419
root 3.99625 17.2705 14.6058 100.07 83.5584 96.6303
lowerback 7.89189 -0.799844 -8.4393
upperback 0.327528 -1.77173 0.751395
thorax -3.81398 -0.715973 5.73403
lowerneck -16.876 -3.65938 -8.96943
upperneck 21.4062 -3.40669 3.92229
head 9.81943 -1.80009 2.41732
rclavicle -2.04748e-014 2.14687e-014
rhumerus -34.0435 -27.3848 -71.2828
rradius 22.764
rwrist 16.1298
rhand -15.644 10.7037
rfingers 7.12502
rthumb 10.5436 -19.0118
lclavicle -2.04748e-014 2.14687e-014
lhumerus -24.6493 3.07112 86.9337
lradius 38.5459
lwrist 0.333766
lhand -23.1765 25.2351
lfingers 7.12502
lthumb 3.27265 55.1897
rfemur -29.4071 3.24651 8.8086
rtibia 18.4027
rfoot -4.20986 -7.66643
rtoes -1.54057
lfemur 7.26311 -2.01651 -30.3547
ltibia 17.8659
lfoot -14.7452 1.05186
ltoes -11.5797
420
root 4.16039 17.2845 14.6399 98.0937 83.177 94.8066
lowerback 7.89491 -0.8897 -8.82548
upperback 0.290896 -1.93094 0.656021
thorax -3.8201 -0.786851 5.86838
lowerneck -17.0137 -3.53989 -9.16777
upperneck 21.6585 -3.17652 3.95114
head 9.92334 -1.70722 2.49416
rclavicle 3.8763e-015 -7.95139e-015
rhumerus -34.2576 -27.6886 -70.9863
rradius 22.742
rwrist 16.8136
rhand -15.0056 10.7921
rfingers 7.12502
rthumb 11.1593 -18.8911
lclavicle 3.8763e-015 -7.95139e-015
lhumerus -24.9259 3.25525 86.8105
lradius 38.5577
lwrist 1.33904
lhand -25.2307 26.7341
lfingers 7.12502
lthumb 1.28871 56.71
rfemur -29.3101 3.18168 8.59849
rtibia 19.3999
rfoot -3.39181 -6.57471
rtoes -0.113053
lfemur 7.8853 -2.49647 -30.7746
ltibia 18.021
lfoot -14.0082 1.18016
ltoes -12.2793
